<?xml version="1.0" standalone="no"?>
<!DOCTYPE svg PUBLIC "-//W3C//DTD SVG 20010904//EN"
 "http://www.w3.org/TR/2001/REC-SVG-20010904/DTD/svg10.dtd">
<svg version="1.0" xmlns="http://www.w3.org/2000/svg"
 width="400.000000pt" height="400.000000pt" viewBox="0 0 400.000000 400.000000"
 preserveAspectRatio="xMidYMid meet">
<metadata>
Created by potrace 1.11, written by Peter Selinger 2001-2013
</metadata>
<g transform="translate(0.000000,400.000000) scale(0.100000,-0.100000)"
fill="#000000" stroke="none">
<path d="M1760 3985 c-104 -13 -205 -33 -310 -62 -66 -18 -313 -113 -308 -119
3 -2 28 5 56 16 63 24 157 26 227 5 49 -15 155 -73 155 -85 0 -3 -16 -22 -36
-41 -52 -50 -119 -164 -144 -244 -27 -88 -37 -247 -21 -339 15 -88 53 -182
101 -250 l39 -55 -42 -12 c-175 -46 -308 -208 -382 -466 -54 -186 -95 -534
-95 -810 0 -117 1 -126 23 -144 28 -23 65 -24 94 -1 21 16 22 28 28 172 21
546 78 834 210 1046 49 79 122 152 182 182 22 11 45 28 52 36 7 9 17 14 21 11
14 -9 3 54 -17 87 -59 101 -90 276 -73 415 20 158 72 274 168 376 169 177 412
178 588 3 103 -103 157 -222 174 -384 15 -141 -8 -278 -66 -395 -13 -27 -22
-53 -19 -57 3 -5 -1 -11 -7 -13 -10 -4 -10 -6 0 -6 7 -1 11 -5 8 -10 -3 -5 28
-25 68 -45 272 -134 395 -518 396 -1229 0 -163 1 -169 23 -188 28 -23 95 -26
104 -3 5 13 8 13 15 2 18 -25 1 542 -21 705 -59 436 -197 660 -449 727 l-43
11 26 35 c38 50 91 169 106 239 16 75 16 221 0 300 -17 83 -91 230 -145 290
-26 27 -46 53 -46 57 0 14 90 66 143 84 76 25 188 15 273 -25 139 -65 256
-231 290 -412 30 -156 9 -318 -60 -463 -39 -81 -36 -95 21 -115 199 -72 333
-297 388 -656 26 -168 35 -319 35 -572 l0 -243 -104 0 c-135 0 -193 -8 -201
-29 -4 -9 -13 -101 -21 -206 -27 -363 -53 -759 -50 -762 8 -8 184 133 274 221
180 175 298 337 408 561 341 696 246 1529 -243 2135 -72 89 -243 257 -328 321
-225 172 -517 310 -785 369 -215 48 -467 61 -680 35z"/>
<path d="M1051 3759 c-175 -95 -294 -182 -440 -324 -179 -173 -297 -336 -407
-560 -271 -553 -271 -1197 0 -1750 110 -224 228 -386 408 -561 90 -88 266
-229 274 -221 2 1 -6 122 -16 267 -11 146 -27 364 -35 485 -9 121 -21 224 -26
230 -5 5 -81 11 -169 13 l-160 4 0 132 c0 250 27 539 66 730 61 290 175 487
334 576 97 55 95 51 56 128 -48 95 -64 148 -77 252 -30 248 72 500 251 622 42
29 19 20 -59 -23z"/>
<path d="M1356 1319 c3 -6 1 -15 -7 -19 -14 -9 -10 -97 31 -640 11 -146 23
-320 27 -387 l6 -123 -79 0 c-91 -1 -87 -5 45 -49 397 -133 845 -133 1242 0
132 44 136 48 47 49 l-78 0 0 58 c0 31 14 255 30 497 35 518 37 593 14 602
-13 5 -13 7 -2 14 8 5 -13 8 -52 8 -45 0 -59 -3 -45 -9 16 -7 17 -9 3 -9 -9
-1 -19 -4 -21 -8 -6 -10 -20 -203 -52 -713 -14 -217 -28 -404 -30 -416 -4 -18
-14 -22 -66 -28 -79 -8 -677 -8 -746 0 -49 6 -53 9 -58 38 -3 17 -16 186 -30
376 -49 664 -56 734 -71 743 -8 5 -12 12 -9 18 4 5 -18 9 -50 9 -39 0 -54 -3
-49 -11z"/>
</g>
</svg>
